<?xml version="1.0" encoding="utf-8"?>
<!-- Generator: Adobe Illustrator 26.1.0, SVG Export Plug-In . SVG Version: 6.00 Build 0)  -->
<svg version="1.1" id="レイヤー_1" xmlns="http://www.w3.org/2000/svg" xmlns:xlink="http://www.w3.org/1999/xlink" x="0px"
	 y="0px" viewBox="0 0 154.85 12.36" style="enable-background:new 0 0 154.85 12.36;" xml:space="preserve">
<style type="text/css">
	.st0{fill:#FFFFFF;}
	.st1{fill:#FFFFFF;stroke:#FFFFFF;stroke-width:0.1526;stroke-miterlimit:10;}
</style>
<g>
	<g>
		<path class="st0" d="M0,12.1V0.3c0-0.06,0.05-0.1,0.1-0.1H4.1c3.66,0,6.03,2.36,6.03,6.01c0,1.81-0.57,3.33-1.66,4.39
			C7.4,11.65,5.88,12.2,4.08,12.2H0.1C0.05,12.2,0,12.16,0,12.1z M2.49,9.77c0,0.06,0.05,0.1,0.1,0.1h1.39
			c1.02,0,1.88-0.31,2.5-0.88c0.68-0.64,1.04-1.6,1.04-2.78c0-1.18-0.36-2.15-1.04-2.79c-0.62-0.58-1.49-0.89-2.5-0.89H2.59
			c-0.06,0-0.1,0.05-0.1,0.1V9.77z"/>
		<path class="st0" d="M72.23,0.3v11.8c0,0.06-0.05,0.1-0.1,0.1h-3.98c-1.8,0-3.31-0.56-4.39-1.61c-1.09-1.06-1.66-2.58-1.66-4.39
			c0-3.65,2.37-6.01,6.03-6.01h3.99C72.18,0.19,72.23,0.24,72.23,0.3z M69.74,2.63c0-0.06-0.05-0.1-0.1-0.1h-1.39
			c-1.02,0-1.88,0.31-2.5,0.89c-0.68,0.64-1.04,1.61-1.04,2.79c0,1.18,0.36,2.14,1.04,2.78c0.62,0.58,1.48,0.88,2.5,0.88h1.39
			c0.06,0,0.1-0.05,0.1-0.1V2.63z"/>
		<path class="st0" d="M32.38,12.02V0.37c0-0.06,0.05-0.1,0.1-0.1h2.24c0.06,0,0.1,0.05,0.1,0.1v11.65c0,0.06-0.05,0.1-0.1,0.1
			h-2.24C32.42,12.13,32.38,12.08,32.38,12.02z"/>
		<path class="st0" d="M57.92,12.15l-4.8-8c-0.05-0.09-0.19-0.05-0.19,0.05v7.89c0,0.06-0.05,0.1-0.1,0.1h-2.2
			c-0.06,0-0.1-0.05-0.1-0.1L50.45,0.3c0-0.06,0.05-0.11,0.1-0.11h2.81c0.04,0,0.07,0.02,0.09,0.05l4.34,7.4
			c0.05,0.09,0.19,0.05,0.19-0.05V0.3c0-0.06,0.05-0.1,0.1-0.1h2.22c0.06,0,0.1,0.05,0.1,0.1v11.8c0,0.06-0.05,0.1-0.1,0.1h-2.3
			C57.97,12.2,57.93,12.18,57.92,12.15z"/>
		<path class="st0" d="M43.19,12.36c-0.95,0-1.92-0.16-2.66-0.43c-0.77-0.29-1.44-0.7-2-1.23c-0.56-0.53-1-1.18-1.31-1.94
			c-0.31-0.76-0.47-1.61-0.47-2.55c0-1.76,0.65-3.35,1.82-4.47c1.13-1.09,2.67-1.69,4.32-1.69c1.44,0,2.66,0.35,3.64,1.04
			c0.73,0.52,1.3,1.22,1.62,2.01c0.02,0.05,0,0.11-0.06,0.14l-2.09,0.9c-0.05,0.02-0.11,0-0.14-0.06c-0.31-0.74-1.19-1.75-2.99-1.75
			c-0.92,0-1.81,0.33-2.46,0.91c-0.78,0.7-1.2,1.73-1.2,2.98c0,0.58,0.09,1.11,0.27,1.59c0.18,0.48,0.44,0.9,0.78,1.26
			c0.34,0.35,0.75,0.63,1.21,0.83c0.44,0.19,1.08,0.3,1.7,0.3c0.99,0,1.96-0.29,2.37-0.56l0,0c0.03-0.02,0.06-0.06,0.06-0.1V8
			c0-0.06-0.05-0.1-0.1-0.1h-1.79c-0.06,0-0.1-0.05-0.1-0.1V5.92c0-0.06,0.05-0.1,0.1-0.1h4.25c0.06,0,0.1,0.05,0.1,0.1v5.85
			c0,0.06-0.05,0.11-0.11,0.1c-0.12-0.01-0.27-0.02-0.46-0.02c-0.39,0-1.01,0.04-1.81,0.21l0,0l-0.23,0.05
			C44.77,12.28,44.05,12.36,43.19,12.36z"/>
		<path class="st0" d="M26.03,12.36c-1.38,0-2.52-0.35-3.41-1.03c-0.66-0.51-1.15-1.21-1.39-1.98c-0.02-0.05,0.01-0.11,0.06-0.13
			l2.01-0.81c0.06-0.02,0.12,0.01,0.14,0.07c0.29,1.1,1.25,1.75,2.62,1.75c1.14,0,1.87-0.54,1.87-1.38c0-0.66-0.53-1.16-1.43-1.33
			l-1.7-0.31c-1-0.19-1.84-0.6-2.41-1.2c-0.57-0.59-0.87-1.36-0.87-2.21c0-1.05,0.46-2.02,1.3-2.73C23.65,0.38,24.74,0,25.9,0
			c1.25,0,2.29,0.29,3.07,0.87C29.67,1.38,30.03,2,30.22,2.5c0.02,0.05,0,0.11-0.06,0.13L28.13,3.5c-0.06,0.02-0.12,0-0.14-0.06
			c-0.18-0.48-0.69-1.28-2.11-1.28c-0.9,0-1.84,0.53-1.84,1.43c0,0.69,0.44,1.12,1.3,1.28l1.66,0.31c2.15,0.39,3.48,1.73,3.48,3.5
			c0,0.93-0.42,1.85-1.14,2.52C28.77,11.72,27.73,12.36,26.03,12.36z"/>
		<path class="st0" d="M11.84,12.1V0.3c0-0.06,0.05-0.11,0.11-0.11h7.32c0.06,0,0.11,0.05,0.11,0.11v2.12
			c0,0.06-0.05,0.11-0.11,0.11h-4.81c-0.06,0-0.11,0.05-0.11,0.11v2.3c0,0.06,0.05,0.11,0.11,0.11h4.64c0.06,0,0.11,0.05,0.11,0.11
			v2.12c0,0.06-0.05,0.11-0.11,0.11h-4.64c-0.06,0-0.11,0.05-0.11,0.11v2.3c0,0.06,0.05,0.11,0.11,0.11h4.81
			c0.06,0,0.11,0.05,0.11,0.11v2.12c0,0.06-0.05,0.11-0.11,0.11h-7.32C11.89,12.2,11.84,12.16,11.84,12.1z"/>
		<g>
			<path class="st0" d="M77.29,3.76c0,0.73-0.59,1.32-1.32,1.32c-0.73,0-1.31-0.59-1.31-1.32c0-0.73,0.59-1.32,1.31-1.32
				C76.7,2.44,77.29,3.03,77.29,3.76z"/>
		</g>
		<g>
			<path class="st0" d="M77.29,8.63c0,0.73-0.59,1.32-1.32,1.32c-0.73,0-1.31-0.59-1.31-1.32c0-0.73,0.59-1.32,1.31-1.32
				C76.7,7.32,77.29,7.91,77.29,8.63z"/>
		</g>
	</g>
	<g>
		<g>
			<path class="st1" d="M79.59,6.2c0-3.68,2.78-6.02,5.87-6.02c3.19,0,4.83,1.95,5.29,3.82l-2.11,0.67
				c-0.28-1.11-1.17-2.33-3.17-2.33c-1.72,0-3.55,1.24-3.55,3.85c0,2.46,1.72,3.81,3.58,3.81c1.97,0,2.93-1.28,3.24-2.36l2.1,0.63
				c-0.44,1.77-2.1,3.92-5.33,3.92C82.27,12.2,79.59,9.88,79.59,6.2z"/>
			<path class="st1" d="M95.89,7.52h-1.17v4.44h-2.26V0.43h4.51c2.24,0,3.68,1.55,3.68,3.55c0,1.61-0.94,2.83-2.46,3.27l2.47,4.72
				h-2.5L95.89,7.52z M96.54,5.58c1.14,0,1.81-0.65,1.81-1.59c0-0.98-0.67-1.61-1.81-1.61h-1.82v3.2H96.54z"/>
			<path class="st1" d="M102.38,11.96V0.43h7.22v2.11h-4.98v2.64h4.51v2h-4.51v2.67h4.98v2.11H102.38z"/>
			<path class="st1" d="M118.46,9.32h-4.68l-0.96,2.64h-2.38l4.42-11.53h2.6l4.39,11.53h-2.44L118.46,9.32z M114.53,7.27h3.19
				l-1.59-4.36L114.53,7.27z"/>
			<path class="st1" d="M126.89,2.56v9.4h-2.26v-9.4h-3.64V0.43h9.55v2.13H126.89z"/>
			<path class="st1" d="M132.36,11.96V0.43h2.28v11.53H132.36z"/>
			<path class="st1" d="M144.26,0.43h2.38l-4.28,11.53h-2.31l-4.26-11.53h2.46L141.26,9L144.26,0.43z"/>
			<path class="st1" d="M147.55,11.96V0.43h7.22v2.11h-4.98v2.64h4.51v2h-4.51v2.67h4.98v2.11H147.55z"/>
		</g>
	</g>
</g>
</svg>
