<?xml version="1.0" encoding="utf-8"?>
<!-- Generator: Adobe Illustrator 27.9.3, SVG Export Plug-In . SVG Version: 9.03 Build 53313)  -->
<svg version="1.1" id="レイヤー_1" xmlns="http://www.w3.org/2000/svg" xmlns:xlink="http://www.w3.org/1999/xlink" x="0px"
	 y="0px" viewBox="0 0 24 24" style="enable-background:new 0 0 24 24;" xml:space="preserve">
<g>
	<g>
		<path d="M12,24C5.38,24,0,18.62,0,12S5.38,0,12,0c6.62,0,12,5.38,12,12S18.62,24,12,24z M12,0.8C5.82,0.8,0.8,5.82,0.8,12
			S5.82,23.2,12,23.2S23.2,18.18,23.2,12S18.18,0.8,12,0.8z"/>
	</g>
	<path d="M12,8.66c-1.85,0-3.34,1.49-3.34,3.34s1.49,3.34,3.34,3.34s3.34-1.49,3.34-3.34S13.85,8.66,12,8.66z M12,14.17
		c-1.2,0-2.17-0.97-2.17-2.17S10.8,9.83,12,9.83s2.17,0.97,2.17,2.17S13.2,14.17,12,14.17L12,14.17z M16.26,8.52
		c0,0.43-0.35,0.78-0.78,0.78c-0.43,0-0.78-0.35-0.78-0.78c0-0.43,0.35-0.78,0.78-0.78C15.91,7.74,16.26,8.09,16.26,8.52z
		 M18.47,9.31c-0.05-1.04-0.29-1.97-1.05-2.73c-0.76-0.76-1.69-1-2.73-1.05c-1.08-0.06-4.3-0.06-5.38,0
		C8.27,5.58,7.34,5.81,6.58,6.58s-1,1.69-1.05,2.73c-0.06,1.08-0.06,4.3,0,5.38c0.05,1.04,0.29,1.97,1.05,2.73
		c0.77,0.76,1.69,1,2.73,1.05c1.08,0.06,4.3,0.06,5.38,0c1.04-0.05,1.97-0.29,2.73-1.05c0.76-0.76,1-1.69,1.05-2.73
		C18.53,13.61,18.53,10.39,18.47,9.31L18.47,9.31z M17.08,15.84c-0.23,0.57-0.67,1.01-1.24,1.24c-0.86,0.34-2.89,0.26-3.84,0.26
		c-0.95,0-2.99,0.08-3.84-0.26c-0.57-0.23-1.01-0.67-1.24-1.24c-0.34-0.86-0.26-2.9-0.26-3.84c0-0.95-0.08-2.99,0.26-3.84
		c0.23-0.57,0.67-1.01,1.24-1.24C9.02,6.58,11.05,6.66,12,6.66c0.95,0,2.99-0.08,3.84,0.26c0.57,0.23,1.01,0.67,1.24,1.24
		c0.34,0.86,0.26,2.9,0.26,3.84C17.35,12.95,17.42,14.99,17.08,15.84z"/>
</g>
</svg>
